<?xml version="1.0" encoding="UTF-8"?>
<svg xmlns="http://www.w3.org/2000/svg" xmlns:xlink="http://www.w3.org/1999/xlink" width="1012.5pt" height="487.499991pt" viewBox="0 0 1012.5 487.499991" version="1.2">
<defs>
<clipPath id="clip1">
  <path d="M 0.269531 0 L 1011.730469 0 L 1011.730469 487 L 0.269531 487 Z M 0.269531 0 "/>
</clipPath>
<clipPath id="clip2">
  <path d="M 0.269531 196 L 14 196 L 14 232 L 0.269531 232 Z M 0.269531 196 "/>
</clipPath>
<clipPath id="clip3">
  <path d="M 167 62 L 195.441406 62 L 195.441406 90 L 167 90 Z M 167 62 "/>
</clipPath>
<clipPath id="clip4">
  <path d="M 143 38.359375 L 172 38.359375 L 172 66 L 143 66 Z M 143 38.359375 "/>
</clipPath>
<clipPath id="clip5">
  <path d="M 0.269531 131 L 38 131 L 38 194 L 0.269531 194 Z M 0.269531 131 "/>
</clipPath>
<clipPath id="clip6">
  <path d="M 0.269531 112 L 13 112 L 13 134 L 0.269531 134 Z M 0.269531 112 "/>
</clipPath>
<clipPath id="clip7">
  <path d="M 58 226 L 76 226 L 76 243.75 L 58 243.75 Z M 58 226 "/>
</clipPath>
</defs>
<g id="surface1">
<g clip-path="url(#clip1)" clip-rule="nonzero">
<path style=" stroke:none;fill-rule:nonzero;fill:rgb(100%,100%,100%);fill-opacity:1;" d="M 0.269531 0 L 1012.230469 0 L 1012.230469 493.988281 L 0.269531 493.988281 Z M 0.269531 0 "/>
<path style=" stroke:none;fill-rule:nonzero;fill:rgb(100%,100%,100%);fill-opacity:1;" d="M 0.269531 0 L 1012.230469 0 L 1012.230469 487.242188 L 0.269531 487.242188 Z M 0.269531 0 "/>
<path style=" stroke:none;fill-rule:nonzero;fill:rgb(35.289001%,25.099182%,53.329468%);fill-opacity:1;" d="M 0.269531 0 L 1012.230469 0 L 1012.230469 487.242188 L 0.269531 487.242188 Z M 0.269531 0 "/>
</g>
<path style=" stroke:none;fill-rule:nonzero;fill:rgb(28.239441%,34.118652%,47.059631%);fill-opacity:1;" d="M 89.007812 179.480469 L 86.554688 204.078125 C 85.96875 209.949219 81.714844 214.792969 75.980469 216.121094 L 40.953125 224.226562 L 34.085938 210.460938 L 64.980469 200.132812 L 58.113281 176.039062 L 13.492188 210.460938 L 3.191406 196.691406 L 54.683594 145.0625 L 89.007812 179.480469 "/>
<path style=" stroke:none;fill-rule:nonzero;fill:rgb(41.178894%,19.999695%,14.118958%);fill-opacity:1;" d="M 40.953125 224.226562 L 38.367188 234.601562 C 37.867188 236.597656 36.078125 237.996094 34.027344 237.996094 C 32.03125 237.996094 30.273438 236.667969 29.726562 234.746094 L 23.789062 213.902344 L 34.085938 210.460938 L 40.953125 224.226562 "/>
<g clip-path="url(#clip2)" clip-rule="nonzero">
<path style=" stroke:none;fill-rule:nonzero;fill:rgb(41.178894%,19.999695%,14.118958%);fill-opacity:1;" d="M 3.191406 196.691406 L -3.671875 203.578125 L -3.671875 226.855469 C -3.671875 229.207031 -1.773438 231.113281 0.570312 231.113281 C 2.175781 231.113281 3.648438 230.203125 4.367188 228.761719 L 13.492188 210.460938 L 3.191406 196.691406 "/>
</g>
<path style=" stroke:none;fill-rule:nonzero;fill:rgb(23.139954%,28.239441%,38.819885%);fill-opacity:1;" d="M 140.5 127.851562 L 178.257812 89.988281 L 167.960938 79.664062 L 130.199219 117.527344 L 140.5 127.851562 "/>
<g clip-path="url(#clip3)" clip-rule="nonzero">
<path style=" stroke:none;fill-rule:nonzero;fill:rgb(98.429871%,75.689697%,59.21936%);fill-opacity:1;" d="M 178.257812 89.988281 L 192.539062 78.53125 C 194.359375 77.070312 195.421875 74.863281 195.421875 72.523438 C 195.421875 70.484375 194.613281 68.527344 193.171875 67.082031 L 190.546875 64.453125 C 187.550781 61.445312 182.695312 61.445312 179.695312 64.453125 L 174.824219 69.335938 L 171.390625 65.894531 L 167.960938 69.335938 L 167.960938 79.664062 L 178.257812 89.988281 "/>
</g>
<path style=" stroke:none;fill-rule:nonzero;fill:rgb(96.469116%,63.139343%,41.178894%);fill-opacity:1;" d="M 179.261719 78.65625 L 168.964844 68.328125 L 173.820312 63.460938 L 184.117188 73.789062 L 179.261719 78.65625 "/>
<path style=" stroke:none;fill-rule:nonzero;fill:rgb(98.429871%,75.689697%,59.21936%);fill-opacity:1;" d="M 153.8125 99.898438 C 157.832031 103.929688 157.832031 110.46875 153.8125 114.5 L 140.5 127.851562 L 106.171875 93.433594 L 123.335938 76.222656 L 157.660156 83.105469 L 147.363281 93.433594 L 153.8125 99.898438 "/>
<path style=" stroke:none;fill-rule:nonzero;fill:rgb(96.469116%,63.139343%,41.178894%);fill-opacity:1;" d="M 153.25 99.335938 L 150.5 102.097656 C 147.792969 104.8125 144.191406 106.238281 140.546875 106.238281 C 138.40625 106.238281 136.25 105.746094 134.242188 104.738281 L 137.3125 98.582031 C 140.09375 99.980469 143.445312 99.433594 145.640625 97.226562 L 148.398438 94.46875 L 153.25 99.335938 "/>
<path style=" stroke:none;fill-rule:nonzero;fill:rgb(28.239441%,34.118652%,47.059631%);fill-opacity:1;" d="M 154.230469 65.894531 L 143.929688 55.570312 L 54.683594 145.0625 L 89.007812 179.480469 L 140.5 127.851562 L 116.46875 103.757812 L 154.230469 65.894531 "/>
<g clip-path="url(#clip4)" clip-rule="nonzero">
<path style=" stroke:none;fill-rule:nonzero;fill:rgb(98.429871%,75.689697%,59.21936%);fill-opacity:1;" d="M 143.929688 55.570312 L 155.359375 41.246094 C 156.8125 39.421875 159.015625 38.359375 161.347656 38.359375 C 163.382812 38.359375 165.335938 39.167969 166.773438 40.613281 L 169.398438 43.246094 C 172.394531 46.25 172.394531 51.121094 169.398438 54.125 L 164.527344 59.011719 L 167.960938 62.453125 L 164.527344 65.894531 L 154.230469 65.894531 L 143.929688 55.570312 "/>
</g>
<path style=" stroke:none;fill-rule:nonzero;fill:rgb(96.469116%,63.139343%,41.178894%);fill-opacity:1;" d="M 165.53125 64.886719 L 155.234375 54.5625 L 160.089844 49.695312 L 170.386719 60.019531 L 165.53125 64.886719 "/>
<path style=" stroke:none;fill-rule:nonzero;fill:rgb(94.119263%,23.139954%,23.919678%);fill-opacity:1;" d="M 103.230469 76.226562 C 103.230469 83.058594 101.789062 89.78125 99.0625 95.953125 C 96.667969 101.359375 93.285156 106.351562 89.007812 110.640625 L 54.683594 145.0625 L 27.222656 117.527344 L 46.753906 99.25 L 57.40625 89.28125 L 64.722656 82.429688 C 73.710938 74.015625 85.550781 69.335938 97.84375 69.335938 L 102.738281 69.335938 C 103.066406 71.636719 103.230469 73.9375 103.230469 76.226562 "/>
<path style=" stroke:none;fill-rule:nonzero;fill:rgb(90.589905%,21.569824%,21.958923%);fill-opacity:1;" d="M 99.0625 95.953125 C 96.667969 101.359375 93.285156 106.351562 89.007812 110.640625 L 54.683594 145.0625 L 33.3125 123.632812 C 55.632812 118.609375 77.964844 109.785156 99.0625 95.953125 "/>
<path style=" stroke:none;fill-rule:nonzero;fill:rgb(30.979919%,54.899597%,81.959534%);fill-opacity:1;" d="M 34.085938 124.410156 L 20.355469 131.292969 L 37.519531 148.503906 L 44.382812 134.734375 L 34.085938 124.410156 "/>
<path style=" stroke:none;fill-rule:nonzero;fill:rgb(87.838745%,19.219971%,17.649841%);fill-opacity:1;" d="M 94.015625 105.335938 C 93.136719 105.335938 92.257812 105 91.589844 104.328125 L 76.285156 88.980469 C 74.941406 87.636719 74.941406 85.457031 76.285156 84.113281 C 77.625 82.769531 79.796875 82.769531 81.136719 84.113281 L 96.441406 99.460938 C 97.78125 100.804688 97.78125 102.984375 96.441406 104.328125 C 95.773438 105 94.894531 105.335938 94.015625 105.335938 "/>
<path style=" stroke:none;fill-rule:nonzero;fill:rgb(97.648621%,67.449951%,12.159729%);fill-opacity:1;" d="M 119.902344 148.503906 L 109.605469 158.832031 L 91.367188 141.542969 L 46.753906 99.25 L 57.40625 89.28125 L 104.480469 133.890625 L 119.902344 148.503906 "/>
<path style=" stroke:none;fill-rule:nonzero;fill:rgb(97.24884%,63.919067%,7.058716%);fill-opacity:1;" d="M 119.902344 148.503906 L 109.605469 158.832031 L 91.367188 141.542969 C 95.792969 139.171875 100.167969 136.625 104.480469 133.890625 L 119.902344 148.503906 "/>
<g clip-path="url(#clip5)" clip-rule="nonzero">
<path style=" stroke:none;fill-rule:nonzero;fill:rgb(97.648621%,67.449951%,12.159729%);fill-opacity:1;" d="M -10.539062 193.25 L 20.355469 162.273438 L 23.789062 162.273438 C 31.371094 162.273438 37.519531 156.105469 37.519531 148.503906 L 20.355469 131.292969 C 12.773438 131.292969 6.625 137.457031 6.625 145.0625 L 6.625 148.503906 L -10.539062 165.714844 L -10.539062 193.25 "/>
</g>
<path style=" stroke:none;fill-rule:nonzero;fill:rgb(88.62915%,88.62915%,87.059021%);fill-opacity:1;" d="M 140.5 127.851562 L 109.605469 138.179688 L 110.816406 132.089844 L 116.46875 103.757812 L 140.5 127.851562 "/>
<path style=" stroke:none;fill-rule:nonzero;fill:rgb(30.979919%,54.899597%,81.959534%);fill-opacity:1;" d="M 132.628906 119.960938 L 116.890625 135.742188 L 109.605469 138.179688 L 110.816406 132.089844 L 127.773438 115.089844 L 132.628906 119.960938 "/>
<path style=" stroke:none;fill-rule:nonzero;fill:rgb(30.979919%,54.899597%,81.959534%);fill-opacity:1;" d="M 27.222656 117.527344 L 13.492188 103.757812 L 23.789062 96.875 L 46.753906 99.25 L 27.222656 117.527344 "/>
<path style=" stroke:none;fill-rule:nonzero;fill:rgb(30.979919%,54.899597%,81.959534%);fill-opacity:1;" d="M 54.683594 145.0625 L 68.414062 158.832031 L 78.710938 148.503906 L 71.84375 127.851562 L 54.683594 145.0625 "/>
<path style=" stroke:none;fill-rule:nonzero;fill:rgb(65.489197%,88.62915%,89.019775%);fill-opacity:1;" d="M 108.597656 185.359375 L 103.746094 180.492188 L 165.101562 118.964844 L 169.957031 123.832031 L 108.597656 185.359375 "/>
<path style=" stroke:none;fill-rule:nonzero;fill:rgb(65.489197%,88.62915%,89.019775%);fill-opacity:1;" d="M 115.25 68.542969 L 110.394531 63.675781 L 131.207031 42.808594 L 136.058594 47.675781 L 115.25 68.542969 "/>
<path style=" stroke:none;fill-rule:nonzero;fill:rgb(65.489197%,88.62915%,89.019775%);fill-opacity:1;" d="M 37.371094 89.84375 L 32.519531 84.976562 L 68.132812 49.265625 L 72.984375 54.132812 L 37.371094 89.84375 "/>
<g clip-path="url(#clip6)" clip-rule="nonzero">
<path style=" stroke:none;fill-rule:nonzero;fill:rgb(65.489197%,88.62915%,89.019775%);fill-opacity:1;" d="M -4.035156 133.726562 L -8.886719 128.859375 L 7.632812 112.296875 L 12.484375 117.164062 L -4.035156 133.726562 "/>
</g>
<g clip-path="url(#clip7)" clip-rule="nonzero">
<path style=" stroke:none;fill-rule:nonzero;fill:rgb(65.489197%,88.62915%,89.019775%);fill-opacity:1;" d="M 63.117188 243.871094 L 58.261719 239.003906 L 71.136719 226.097656 L 75.988281 230.964844 L 63.117188 243.871094 "/>
</g>
<path style=" stroke:none;fill-rule:nonzero;fill:rgb(65.489197%,88.62915%,89.019775%);fill-opacity:1;" d="M 105.167969 206.011719 L 100.3125 201.144531 L 144.9375 156.394531 L 149.789062 161.265625 L 105.167969 206.011719 "/>
</g>
</svg>
