<?xml version="1.0" encoding="UTF-8"?>
<svg xmlns="http://www.w3.org/2000/svg" xmlns:xlink="http://www.w3.org/1999/xlink" width="1125pt" height="1124.99995pt" viewBox="0 0 1125 1124.99995" version="1.2">
<defs>
<clipPath id="clip1">
  <path d="M 11.257812 277 L 1113.757812 277 L 1113.757812 1119.351562 L 11.257812 1119.351562 Z M 11.257812 277 "/>
</clipPath>
<clipPath id="clip2">
  <path d="M 572 5.601562 L 709 5.601562 L 709 143 L 572 143 Z M 572 5.601562 "/>
</clipPath>
</defs>
<g id="surface1">
<g clip-path="url(#clip1)" clip-rule="nonzero">
<path style=" stroke:none;fill-rule:nonzero;fill:rgb(99.609375%,88.62915%,55.688477%);fill-opacity:1;" d="M 898.765625 324.601562 C 931.226562 307.132812 963.738281 306.472656 993.667969 339.4375 C 1049.882812 401.417969 972.75 429.765625 920.261719 441.320312 C 876.761719 450.898438 828.160156 490.960938 817.695312 535.425781 C 808.054688 576.308594 823.101562 614.5625 864.730469 633.929688 C 879.277344 640.695312 894.054688 650.136719 910.039062 652.625 C 925.910156 655.078125 942 652.878906 957.960938 653.265625 C 985.082031 653.949219 1006.164062 645.925781 1032.28125 639.179688 C 1059.0625 632.234375 1094.542969 644.429688 1108.011719 669.441406 C 1119.453125 690.699219 1112.542969 717.734375 1098.445312 735.882812 C 1081.136719 758.167969 1060.8125 766.867188 1033.28125 766.652344 C 976.414062 766.21875 868.671875 659.96875 823.574219 738.054688 C 788.484375 798.777344 940.03125 893.867188 960.167969 946.273438 C 977.953125 992.507812 979.171875 1073.421875 930.957031 1103.105469 C 798.652344 1184.511719 749.285156 931.238281 711.261719 860.46875 C 590.65625 636.066406 571.871094 910.886719 487.324219 969.074219 C 437.113281 1003.628906 373.113281 995.386719 359.605469 942.667969 C 339.542969 864.453125 464.207031 817.910156 455.058594 765.242188 C 432.316406 634.453125 131.140625 701.316406 48.410156 626.902344 C 11.5 593.710938 2.125 563.933594 20.128906 514.777344 C 55.519531 418.132812 127.96875 444.839844 206.542969 463.804688 C 245.160156 473.121094 282.894531 492.105469 323.5625 490.175781 C 341.460938 489.324219 362.570312 483.421875 371.574219 466.164062 C 383.691406 442.949219 361.789062 426.625 348.191406 410.335938 C 331.03125 389.761719 326.003906 356.683594 342.675781 334.011719 C 366.667969 301.371094 407.660156 295.875 438.234375 321.664062 C 476.460938 353.941406 473.421875 466.558594 545.097656 456.960938 C 601.128906 449.429688 580.109375 362.886719 596.363281 327.164062 C 620.351562 274.492188 708.585938 253.59375 734.421875 315.585938 C 747.402344 346.714844 736.4375 397.433594 774.546875 407.957031 C 816.800781 419.648438 846.027344 362.507812 874.289062 340.726562 C 882.394531 334.441406 890.589844 328.996094 898.765625 324.601562 Z M 898.765625 324.601562 "/>
</g>
<g clip-path="url(#clip2)" clip-rule="nonzero">
<path style=" stroke:none;fill-rule:nonzero;fill:rgb(99.609375%,88.62915%,55.688477%);fill-opacity:1;" d="M 609.570312 134.660156 C 576.097656 117.429688 562.945312 76.339844 580.195312 42.875 C 597.4375 9.394531 638.523438 -3.761719 671.988281 13.46875 C 705.460938 30.726562 718.625 71.8125 701.378906 105.289062 C 684.132812 138.742188 643.046875 151.917969 609.570312 134.660156 Z M 609.570312 134.660156 "/>
</g>
</g>
</svg>
